<svg width="113" height="33" viewBox="0 0 113 33" fill="none" xmlns="http://www.w3.org/2000/svg">
<g clip-path="url(#clip0)">
<path d="M11.4791 9.78373L9.28098 11.7737C8.62968 10.7787 7.48991 10.1983 6.35014 10.1983C5.45461 10.1154 4.7219 10.7787 4.64049 11.6908C4.64049 11.7737 4.64049 11.8566 4.64049 11.9395C4.64049 12.3541 4.80331 12.6857 5.04755 13.0174C5.78026 13.6807 6.67579 14.1782 7.65274 14.4269C8.54827 14.6757 9.4438 15.1732 10.2579 15.6707C11.5605 16.4169 12.3746 17.8264 12.3746 19.4018C12.3746 20.8943 11.8048 22.3038 10.8278 23.2988C9.68804 24.3767 8.14121 24.9571 6.59438 24.8742C3.66354 24.8742 1.05836 23.0501 0 20.231L2.93084 18.6556C3.82637 20.7285 5.04755 21.8063 6.67579 21.8063C8.30403 21.8063 8.95533 21.0601 8.95533 19.5677C8.95533 18.9872 8.62968 18.4068 8.0598 18.241C7.81556 18.0752 7.48991 17.9094 7.16427 17.7435C6.67579 17.4948 5.45461 17.0802 4.88473 16.8315C2.44236 15.8365 1.22118 14.2611 1.22118 12.1053C1.22118 10.7787 1.70965 9.53499 2.6866 8.62293C3.82637 7.54504 5.12896 7.04755 6.51297 7.13047C8.54827 7.13047 10.4207 8.12544 11.4791 9.78373Z" fill="white"/>
<path d="M16.2812 0.414551H19.782V10.3643C21.0031 8.37435 23.2013 7.13063 25.4808 7.13063C28.6559 7.13063 30.5284 8.95475 30.5284 12.5201V24.7085H27.0276V13.4321C27.0276 10.9447 26.1321 10.2814 24.341 10.2814C23.2827 10.2814 22.2243 10.9447 21.2474 12.2713C20.189 13.7638 19.7006 15.5879 19.782 17.412V24.7085H16.2812V0.414551Z" fill="white"/>
<path d="M35.0071 0.746191C35.9026 -0.248784 37.4495 -0.248784 38.345 0.663277L38.4264 0.746191C39.4033 1.74117 39.4033 3.23363 38.4264 4.2286C37.4495 5.14066 35.9026 5.14066 35.0071 4.2286C34.1116 3.23363 34.1116 1.74117 35.0071 0.746191Z" fill="#EB3454"/>
<path d="M35.0068 7.37939C36.0652 8.04271 37.4492 8.04271 38.5076 7.37939V24.6256H35.0068V7.37939Z" fill="white"/>
<path d="M93.624 24.2941C94.6824 23.6308 96.0664 23.6308 97.1247 24.2941V7.04785H93.624V24.2941Z" fill="white"/>
<path d="M51.2082 24.8746C49.4172 24.9575 47.7889 24.1283 46.6492 22.7188V31.5907H43.1484V7.3796H46.6492V9.36955C47.3005 8.20875 49.1729 7.13086 51.2896 7.13086C56.2558 7.13086 58.861 10.4474 58.861 16.0027C58.861 21.4751 56.1744 24.8746 51.2082 24.8746ZM55.1974 16.0027C55.2788 14.5103 54.8718 13.0178 53.9762 11.857C52.6737 10.1158 50.1499 9.78413 48.4402 11.1108C48.196 11.3595 47.9517 11.5253 47.7075 11.857C46.812 13.1007 46.4049 14.5103 46.4863 16.0027C46.4049 17.4952 46.812 18.9876 47.7075 20.2314C49.0915 21.9726 51.6153 22.3042 53.3249 20.8947C53.5692 20.7289 53.8134 20.4801 53.9762 20.2314C54.7904 18.9876 55.2788 17.4952 55.1974 16.0027Z" fill="white"/>
<path d="M60.4062 10.5301V7.37937H63.2557V2.57033L66.7564 0.414551V7.37937H71.1527V10.5301H66.7564V18.9045C66.7564 20.8115 67.4891 21.7236 69.0359 21.7236C69.6058 21.7236 70.1757 21.5578 70.6642 21.2261L71.5597 24.211C70.7456 24.6256 69.7686 24.8743 68.8731 24.7914C65.5352 24.7914 63.3371 22.7186 63.3371 18.6558V10.4472H60.4062V10.5301Z" fill="white"/>
<path d="M74.8989 0.414551H78.3996V10.3643C79.6208 8.37435 81.819 7.13063 84.0985 7.13063C87.2736 7.13063 89.0646 8.95475 89.0646 12.5201V24.7085H85.5639V13.4321C85.5639 10.9447 84.6684 10.2814 82.8773 10.2814C81.819 10.2814 80.7606 10.9447 79.7836 12.2713C78.7253 13.7638 78.2368 15.5879 78.3182 17.412V24.7085H74.8989V0.414551Z" fill="white"/>
<path d="M93.7054 28.7711C94.6009 27.7761 96.1477 27.7761 97.0433 28.6882L97.1247 28.7711C98.1016 29.7661 98.1016 31.3414 97.1247 32.2535C96.1477 33.1656 94.6009 33.1656 93.7054 32.2535C92.7284 31.2585 92.7284 29.7661 93.7054 28.7711Z" fill="#EB3454"/>
<path d="M112.104 9.78386L109.906 11.7738C109.255 10.7788 108.115 10.1984 106.975 10.1984C106.08 10.1155 105.347 10.7788 105.265 11.6909C105.265 11.7738 105.265 11.8567 105.265 11.9396C105.265 12.3542 105.428 12.6859 105.673 13.0175C106.405 13.6808 107.301 14.1783 108.278 14.4271C109.173 14.6758 110.069 15.1733 110.883 15.6708C112.186 16.417 113 17.8266 113 19.4019C113 20.8944 112.43 22.304 111.371 23.2989C110.232 24.3768 108.685 24.9572 107.138 24.8743C104.207 24.8743 101.602 23.0502 100.625 20.2311L103.556 18.6557C104.451 20.7286 105.673 21.8065 107.301 21.8065C108.929 21.8065 109.58 21.0602 109.58 19.5678C109.58 18.9874 109.255 18.407 108.685 18.2411C108.441 18.0753 108.115 17.9095 107.789 17.7437C107.301 17.4949 105.998 17.0803 105.51 16.8316C103.067 15.8366 101.846 14.2612 101.846 12.1055C101.846 10.7788 102.335 9.53511 103.312 8.62305C104.289 7.62808 105.673 7.13059 107.057 7.2135C109.092 7.13059 110.964 8.12556 112.104 9.78386Z" fill="white"/>
</g>
<defs>
<clipPath id="clip0">
<rect width="113" height="33" fill="white"/>
</clipPath>
</defs>
</svg>
